<svg xmlns="http://www.w3.org/2000/svg" viewBox="0 0 100 100">
  <defs>
    <filter id="glow" x="-20%" y="-20%" width="140%" height="140%">
      <feGaussianBlur stdDeviation="2" result="blur"/>
      <feComposite in="SourceGraphic" in2="blur" operator="over"/>
    </filter>
  </defs>
  <g transform="translate(50,50)">
    <!-- Wood (Green) -->
    <path d="M0,-45 A45,45 0 0,1 42.8,-13.9 L28.5,-9.3 A30,30 0 0,0 0,-30 Z" fill="#4CAF50" filter="url(#glow)">
      <animateTransform attributeName="transform" type="scale" values="1;1.05;1" dur="3s" repeatCount="indefinite" begin="0s"/>
    </path>
    <!-- Fire (Red) -->
    <path d="M42.8,-13.9 A45,45 0 0,1 26.4,36.4 L17.6,24.3 A30,30 0 0,0 28.5,-9.3 Z" fill="#F44336" filter="url(#glow)">
      <animateTransform attributeName="transform" type="scale" values="1;1.05;1" dur="3s" repeatCount="indefinite" begin="0.6s"/>
    </path>
    <!-- Earth (Yellow) -->
    <path d="M26.4,36.4 A45,45 0 0,1 -26.4,36.4 L-17.6,24.3 A30,30 0 0,0 17.6,24.3 Z" fill="#FFC107" filter="url(#glow)">
      <animateTransform attributeName="transform" type="scale" values="1;1.05;1" dur="3s" repeatCount="indefinite" begin="1.2s"/>
    </path>
    <!-- Metal (Gray) -->
    <path d="M-26.4,36.4 A45,45 0 0,1 -42.8,-13.9 L-28.5,-9.3 A30,30 0 0,0 -17.6,24.3 Z" fill="#9E9E9E" filter="url(#glow)">
      <animateTransform attributeName="transform" type="scale" values="1;1.05;1" dur="3s" repeatCount="indefinite" begin="1.8s"/>
    </path>
    <!-- Water (Blue) -->
    <path d="M-42.8,-13.9 A45,45 0 0,1 0,-45 L0,-30 A30,30 0 0,0 -28.5,-9.3 Z" fill="#2196F3" filter="url(#glow)">
      <animateTransform attributeName="transform" type="scale" values="1;1.05;1" dur="3s" repeatCount="indefinite" begin="2.4s"/>
    </path>
  </g>
</svg>
